<svg xmlns="http://www.w3.org/2000/svg" width="640" height="360" viewBox="0 0 640 360" fill="none">
  <defs>
    <linearGradient id="accent" x1="210" y1="110" x2="430" y2="270" gradientUnits="userSpaceOnUse">
      <stop stop-color="#FB7185"/>
      <stop offset="1" stop-color="#F59E0B"/>
    </linearGradient>
    <linearGradient id="accent2" x1="260" y1="86" x2="360" y2="220" gradientUnits="userSpaceOnUse">
      <stop stop-color="#F97316"/>
      <stop offset="1" stop-color="#EC4899"/>
    </linearGradient>
  </defs>

  <!-- Wallet -->
  <path
    d="M220 142C220 130 230 120 242 120H410C422 120 432 130 432 142V262C432 274 422 284 410 284H242C230 284 220 274 220 262V142Z"
    stroke="url(#accent)"
    stroke-width="8"
  />
  <path
    d="M220 156H404C416 156 426 166 426 178V198H394C382 198 372 208 372 220C372 232 382 242 394 242H426"
    stroke="url(#accent)"
    stroke-width="8"
    stroke-linecap="round"
    stroke-linejoin="round"
  />
  <circle cx="398" cy="220" r="8" fill="#F59E0B"/>

  <!-- Incoming arrow -->
  <path d="M320 86V138" stroke="url(#accent2)" stroke-width="10" stroke-linecap="round"/>
  <path d="M298 120L320 142L342 120" stroke="url(#accent2)" stroke-width="10" stroke-linecap="round" stroke-linejoin="round"/>

  <!-- "Lock" block -->
  <path d="M292 204C292 190 304 178 318 178H322C336 178 348 190 348 204V220H292V204Z" stroke="#FB7185" stroke-width="8"/>
  <rect x="286" y="220" width="68" height="54" rx="12" stroke="#FB7185" stroke-width="8"/>
</svg>
